<mxfile host="app.diagrams.net" agent="Mozilla/5.0 (Windows NT 10.0; Win64; x64) AppleWebKit/537.36 (KHTML, like Gecko) Chrome/138.0.0.0 Safari/537.36" version="28.1.1">
  <diagram name="Page-1" id="iVsJ-_Uhq_HiEpAljnpf">
    <mxGraphModel dx="660" dy="399" grid="1" gridSize="2" guides="1" tooltips="1" connect="1" arrows="1" fold="1" page="1" pageScale="1" pageWidth="1169" pageHeight="827" math="1" shadow="0">
      <root>
        <mxCell id="0" />
        <mxCell id="1" parent="0" />
        <mxCell id="1zj1acQlD7b9-B1uryEK-18" style="edgeStyle=none;shape=connector;rounded=0;orthogonalLoop=1;jettySize=auto;html=1;strokeColor=default;align=center;verticalAlign=middle;fontFamily=Helvetica;fontSize=11;fontColor=default;labelBackgroundColor=default;endArrow=none;endFill=0;entryX=0;entryY=0.5;entryDx=0;entryDy=0;" edge="1" parent="1" source="1zj1acQlD7b9-B1uryEK-1" target="1zj1acQlD7b9-B1uryEK-9">
          <mxGeometry relative="1" as="geometry" />
        </mxCell>
        <mxCell id="1zj1acQlD7b9-B1uryEK-1" value="1" style="ellipse;whiteSpace=wrap;html=1;aspect=fixed;fontFamily=Times New Roman;" vertex="1" parent="1">
          <mxGeometry x="450" y="180" width="20" height="20" as="geometry" />
        </mxCell>
        <mxCell id="1zj1acQlD7b9-B1uryEK-17" style="edgeStyle=none;shape=connector;rounded=0;orthogonalLoop=1;jettySize=auto;html=1;strokeColor=default;align=center;verticalAlign=middle;fontFamily=Helvetica;fontSize=11;fontColor=default;labelBackgroundColor=default;endArrow=none;endFill=0;entryX=0;entryY=0.5;entryDx=0;entryDy=0;" edge="1" parent="1" source="1zj1acQlD7b9-B1uryEK-2" target="1zj1acQlD7b9-B1uryEK-9">
          <mxGeometry relative="1" as="geometry" />
        </mxCell>
        <mxCell id="1zj1acQlD7b9-B1uryEK-2" value="2" style="ellipse;whiteSpace=wrap;html=1;aspect=fixed;fontFamily=Times New Roman;" vertex="1" parent="1">
          <mxGeometry x="450" y="210" width="20" height="20" as="geometry" />
        </mxCell>
        <mxCell id="1zj1acQlD7b9-B1uryEK-16" style="edgeStyle=none;shape=connector;rounded=0;orthogonalLoop=1;jettySize=auto;html=1;strokeColor=default;align=center;verticalAlign=middle;fontFamily=Helvetica;fontSize=11;fontColor=default;labelBackgroundColor=default;endArrow=none;endFill=0;entryX=0;entryY=0.5;entryDx=0;entryDy=0;" edge="1" parent="1" source="1zj1acQlD7b9-B1uryEK-3" target="1zj1acQlD7b9-B1uryEK-10">
          <mxGeometry relative="1" as="geometry" />
        </mxCell>
        <mxCell id="1zj1acQlD7b9-B1uryEK-19" style="edgeStyle=none;shape=connector;rounded=0;orthogonalLoop=1;jettySize=auto;html=1;entryX=0;entryY=0.5;entryDx=0;entryDy=0;strokeColor=default;align=center;verticalAlign=middle;fontFamily=Helvetica;fontSize=11;fontColor=default;labelBackgroundColor=default;endArrow=none;endFill=0;" edge="1" parent="1" source="1zj1acQlD7b9-B1uryEK-3" target="1zj1acQlD7b9-B1uryEK-9">
          <mxGeometry relative="1" as="geometry" />
        </mxCell>
        <mxCell id="1zj1acQlD7b9-B1uryEK-3" value="3" style="ellipse;whiteSpace=wrap;html=1;aspect=fixed;fontFamily=Times New Roman;" vertex="1" parent="1">
          <mxGeometry x="450" y="240" width="20" height="20" as="geometry" />
        </mxCell>
        <mxCell id="1zj1acQlD7b9-B1uryEK-15" style="edgeStyle=none;shape=connector;rounded=0;orthogonalLoop=1;jettySize=auto;html=1;strokeColor=default;align=center;verticalAlign=middle;fontFamily=Helvetica;fontSize=11;fontColor=default;labelBackgroundColor=default;endArrow=none;endFill=0;entryX=0;entryY=0.5;entryDx=0;entryDy=0;" edge="1" parent="1" source="1zj1acQlD7b9-B1uryEK-4" target="1zj1acQlD7b9-B1uryEK-12">
          <mxGeometry relative="1" as="geometry" />
        </mxCell>
        <mxCell id="1zj1acQlD7b9-B1uryEK-20" style="edgeStyle=none;shape=connector;rounded=0;orthogonalLoop=1;jettySize=auto;html=1;entryX=0;entryY=0.5;entryDx=0;entryDy=0;strokeColor=default;align=center;verticalAlign=middle;fontFamily=Helvetica;fontSize=11;fontColor=default;labelBackgroundColor=default;endArrow=none;endFill=0;" edge="1" parent="1" source="1zj1acQlD7b9-B1uryEK-4" target="1zj1acQlD7b9-B1uryEK-10">
          <mxGeometry relative="1" as="geometry" />
        </mxCell>
        <mxCell id="1zj1acQlD7b9-B1uryEK-4" value="4" style="ellipse;whiteSpace=wrap;html=1;aspect=fixed;fontFamily=Times New Roman;" vertex="1" parent="1">
          <mxGeometry x="450" y="270" width="20" height="20" as="geometry" />
        </mxCell>
        <mxCell id="1zj1acQlD7b9-B1uryEK-14" style="edgeStyle=none;shape=connector;rounded=0;orthogonalLoop=1;jettySize=auto;html=1;strokeColor=default;align=center;verticalAlign=middle;fontFamily=Helvetica;fontSize=11;fontColor=default;labelBackgroundColor=default;endArrow=none;endFill=0;entryX=0;entryY=0.5;entryDx=0;entryDy=0;" edge="1" parent="1" source="1zj1acQlD7b9-B1uryEK-5" target="1zj1acQlD7b9-B1uryEK-12">
          <mxGeometry relative="1" as="geometry" />
        </mxCell>
        <mxCell id="1zj1acQlD7b9-B1uryEK-5" value="5" style="ellipse;whiteSpace=wrap;html=1;aspect=fixed;fontFamily=Times New Roman;" vertex="1" parent="1">
          <mxGeometry x="450" y="300" width="20" height="20" as="geometry" />
        </mxCell>
        <mxCell id="1zj1acQlD7b9-B1uryEK-13" style="rounded=0;orthogonalLoop=1;jettySize=auto;html=1;endArrow=none;endFill=0;entryX=0;entryY=0.5;entryDx=0;entryDy=0;" edge="1" parent="1" source="1zj1acQlD7b9-B1uryEK-6" target="1zj1acQlD7b9-B1uryEK-12">
          <mxGeometry relative="1" as="geometry" />
        </mxCell>
        <mxCell id="1zj1acQlD7b9-B1uryEK-6" value="6" style="ellipse;whiteSpace=wrap;html=1;aspect=fixed;fontFamily=Times New Roman;" vertex="1" parent="1">
          <mxGeometry x="450" y="330" width="20" height="20" as="geometry" />
        </mxCell>
        <mxCell id="1zj1acQlD7b9-B1uryEK-9" value="Feature 1" style="rounded=1;whiteSpace=wrap;html=1;fontFamily=Times New Roman;" vertex="1" parent="1">
          <mxGeometry x="525" y="230" width="60" height="20" as="geometry" />
        </mxCell>
        <mxCell id="1zj1acQlD7b9-B1uryEK-10" value="Feature 2" style="rounded=1;whiteSpace=wrap;html=1;fontFamily=Times New Roman;" vertex="1" parent="1">
          <mxGeometry x="525" y="260" width="60" height="20" as="geometry" />
        </mxCell>
        <mxCell id="1zj1acQlD7b9-B1uryEK-12" value="Feature 3" style="rounded=1;whiteSpace=wrap;html=1;fontFamily=Times New Roman;" vertex="1" parent="1">
          <mxGeometry x="525" y="290" width="60" height="20" as="geometry" />
        </mxCell>
        <mxCell id="1zj1acQlD7b9-B1uryEK-21" style="edgeStyle=none;shape=connector;rounded=0;orthogonalLoop=1;jettySize=auto;html=1;strokeColor=default;align=center;verticalAlign=middle;fontFamily=Helvetica;fontSize=11;fontColor=default;labelBackgroundColor=default;endArrow=none;endFill=0;entryX=0;entryY=0.5;entryDx=0;entryDy=0;" edge="1" parent="1" source="1zj1acQlD7b9-B1uryEK-22" target="1zj1acQlD7b9-B1uryEK-35">
          <mxGeometry relative="1" as="geometry" />
        </mxCell>
        <mxCell id="1zj1acQlD7b9-B1uryEK-22" value="1" style="ellipse;whiteSpace=wrap;html=1;aspect=fixed;fontFamily=Times New Roman;fillColor=#d5e8d4;strokeColor=default;" vertex="1" parent="1">
          <mxGeometry x="667" y="180" width="20" height="20" as="geometry" />
        </mxCell>
        <mxCell id="1zj1acQlD7b9-B1uryEK-23" style="edgeStyle=none;shape=connector;rounded=0;orthogonalLoop=1;jettySize=auto;html=1;strokeColor=default;align=center;verticalAlign=middle;fontFamily=Helvetica;fontSize=11;fontColor=default;labelBackgroundColor=default;endArrow=none;endFill=0;entryX=0;entryY=0.5;entryDx=0;entryDy=0;" edge="1" parent="1" source="1zj1acQlD7b9-B1uryEK-24" target="1zj1acQlD7b9-B1uryEK-35">
          <mxGeometry relative="1" as="geometry" />
        </mxCell>
        <mxCell id="1zj1acQlD7b9-B1uryEK-24" value="2" style="ellipse;whiteSpace=wrap;html=1;aspect=fixed;fontFamily=Times New Roman;fillColor=#d5e8d4;strokeColor=default;" vertex="1" parent="1">
          <mxGeometry x="667" y="210" width="20" height="20" as="geometry" />
        </mxCell>
        <mxCell id="1zj1acQlD7b9-B1uryEK-25" style="edgeStyle=none;shape=connector;rounded=0;orthogonalLoop=1;jettySize=auto;html=1;strokeColor=default;align=center;verticalAlign=middle;fontFamily=Helvetica;fontSize=11;fontColor=default;labelBackgroundColor=default;endArrow=none;endFill=0;entryX=0;entryY=0.5;entryDx=0;entryDy=0;" edge="1" parent="1" source="1zj1acQlD7b9-B1uryEK-27" target="1zj1acQlD7b9-B1uryEK-36">
          <mxGeometry relative="1" as="geometry" />
        </mxCell>
        <mxCell id="1zj1acQlD7b9-B1uryEK-26" style="edgeStyle=none;shape=connector;rounded=0;orthogonalLoop=1;jettySize=auto;html=1;entryX=0;entryY=0.5;entryDx=0;entryDy=0;strokeColor=default;align=center;verticalAlign=middle;fontFamily=Helvetica;fontSize=11;fontColor=default;labelBackgroundColor=default;endArrow=none;endFill=0;" edge="1" parent="1" source="1zj1acQlD7b9-B1uryEK-27" target="1zj1acQlD7b9-B1uryEK-35">
          <mxGeometry relative="1" as="geometry" />
        </mxCell>
        <mxCell id="1zj1acQlD7b9-B1uryEK-27" value="3" style="ellipse;whiteSpace=wrap;html=1;aspect=fixed;fontFamily=Times New Roman;fillColor=#f8cecc;strokeColor=default;" vertex="1" parent="1">
          <mxGeometry x="667" y="240" width="20" height="20" as="geometry" />
        </mxCell>
        <mxCell id="1zj1acQlD7b9-B1uryEK-28" style="edgeStyle=none;shape=connector;rounded=0;orthogonalLoop=1;jettySize=auto;html=1;strokeColor=default;align=center;verticalAlign=middle;fontFamily=Helvetica;fontSize=11;fontColor=default;labelBackgroundColor=default;endArrow=none;endFill=0;entryX=0;entryY=0.5;entryDx=0;entryDy=0;" edge="1" parent="1" source="1zj1acQlD7b9-B1uryEK-30" target="1zj1acQlD7b9-B1uryEK-37">
          <mxGeometry relative="1" as="geometry" />
        </mxCell>
        <mxCell id="1zj1acQlD7b9-B1uryEK-29" style="edgeStyle=none;shape=connector;rounded=0;orthogonalLoop=1;jettySize=auto;html=1;entryX=0;entryY=0.5;entryDx=0;entryDy=0;strokeColor=default;align=center;verticalAlign=middle;fontFamily=Helvetica;fontSize=11;fontColor=default;labelBackgroundColor=default;endArrow=none;endFill=0;" edge="1" parent="1" source="1zj1acQlD7b9-B1uryEK-30" target="1zj1acQlD7b9-B1uryEK-36">
          <mxGeometry relative="1" as="geometry" />
        </mxCell>
        <mxCell id="1zj1acQlD7b9-B1uryEK-30" value="4" style="ellipse;whiteSpace=wrap;html=1;aspect=fixed;fontFamily=Times New Roman;fillColor=#e1d5e7;strokeColor=default;" vertex="1" parent="1">
          <mxGeometry x="667" y="270" width="20" height="20" as="geometry" />
        </mxCell>
        <mxCell id="1zj1acQlD7b9-B1uryEK-31" style="edgeStyle=none;shape=connector;rounded=0;orthogonalLoop=1;jettySize=auto;html=1;strokeColor=default;align=center;verticalAlign=middle;fontFamily=Helvetica;fontSize=11;fontColor=default;labelBackgroundColor=default;endArrow=none;endFill=0;entryX=0;entryY=0.5;entryDx=0;entryDy=0;" edge="1" parent="1" source="1zj1acQlD7b9-B1uryEK-32" target="1zj1acQlD7b9-B1uryEK-37">
          <mxGeometry relative="1" as="geometry" />
        </mxCell>
        <mxCell id="1zj1acQlD7b9-B1uryEK-32" value="5" style="ellipse;whiteSpace=wrap;html=1;aspect=fixed;fontFamily=Times New Roman;fillColor=#dae8fc;strokeColor=default;" vertex="1" parent="1">
          <mxGeometry x="667" y="300" width="20" height="20" as="geometry" />
        </mxCell>
        <mxCell id="1zj1acQlD7b9-B1uryEK-33" style="rounded=0;orthogonalLoop=1;jettySize=auto;html=1;endArrow=none;endFill=0;entryX=0;entryY=0.5;entryDx=0;entryDy=0;" edge="1" parent="1" source="1zj1acQlD7b9-B1uryEK-34" target="1zj1acQlD7b9-B1uryEK-37">
          <mxGeometry relative="1" as="geometry" />
        </mxCell>
        <mxCell id="1zj1acQlD7b9-B1uryEK-34" value="6" style="ellipse;whiteSpace=wrap;html=1;aspect=fixed;fontFamily=Times New Roman;fillColor=#dae8fc;strokeColor=default;" vertex="1" parent="1">
          <mxGeometry x="667" y="330" width="20" height="20" as="geometry" />
        </mxCell>
        <mxCell id="1zj1acQlD7b9-B1uryEK-35" value="Feature 1" style="rounded=1;whiteSpace=wrap;html=1;fontFamily=Times New Roman;" vertex="1" parent="1">
          <mxGeometry x="742" y="230" width="60" height="20" as="geometry" />
        </mxCell>
        <mxCell id="1zj1acQlD7b9-B1uryEK-36" value="Feature 2" style="rounded=1;whiteSpace=wrap;html=1;fontFamily=Times New Roman;" vertex="1" parent="1">
          <mxGeometry x="742" y="260" width="60" height="20" as="geometry" />
        </mxCell>
        <mxCell id="1zj1acQlD7b9-B1uryEK-37" value="Feature 3" style="rounded=1;whiteSpace=wrap;html=1;fontFamily=Times New Roman;" vertex="1" parent="1">
          <mxGeometry x="742" y="290" width="60" height="20" as="geometry" />
        </mxCell>
        <mxCell id="1zj1acQlD7b9-B1uryEK-39" value="" style="endArrow=none;dashed=1;html=1;dashPattern=1 3;strokeWidth=1;rounded=0;strokeColor=#666666;align=center;verticalAlign=middle;fontFamily=Helvetica;fontSize=11;fontColor=default;labelBackgroundColor=default;fillColor=#f5f5f5;" edge="1" parent="1">
          <mxGeometry width="50" height="50" relative="1" as="geometry">
            <mxPoint x="518" y="255" as="sourcePoint" />
            <mxPoint x="592" y="255" as="targetPoint" />
          </mxGeometry>
        </mxCell>
        <mxCell id="1zj1acQlD7b9-B1uryEK-40" value="" style="endArrow=none;dashed=1;html=1;dashPattern=1 3;strokeWidth=1;rounded=0;strokeColor=#666666;align=center;verticalAlign=middle;fontFamily=Helvetica;fontSize=11;fontColor=default;labelBackgroundColor=default;fillColor=#f5f5f5;" edge="1" parent="1">
          <mxGeometry width="50" height="50" relative="1" as="geometry">
            <mxPoint x="518" y="285" as="sourcePoint" />
            <mxPoint x="592" y="285" as="targetPoint" />
          </mxGeometry>
        </mxCell>
        <mxCell id="1zj1acQlD7b9-B1uryEK-41" value="" style="endArrow=none;dashed=1;html=1;dashPattern=1 3;strokeWidth=1;rounded=0;strokeColor=#666666;align=center;verticalAlign=middle;fontFamily=Helvetica;fontSize=11;fontColor=default;labelBackgroundColor=default;fillColor=#f5f5f5;" edge="1" parent="1">
          <mxGeometry width="50" height="50" relative="1" as="geometry">
            <mxPoint x="735" y="254.83" as="sourcePoint" />
            <mxPoint x="809" y="254.83" as="targetPoint" />
          </mxGeometry>
        </mxCell>
        <mxCell id="1zj1acQlD7b9-B1uryEK-42" value="" style="endArrow=none;dashed=1;html=1;dashPattern=1 3;strokeWidth=1;rounded=0;strokeColor=#666666;align=center;verticalAlign=middle;fontFamily=Helvetica;fontSize=11;fontColor=default;labelBackgroundColor=default;fillColor=#f5f5f5;" edge="1" parent="1">
          <mxGeometry width="50" height="50" relative="1" as="geometry">
            <mxPoint x="735" y="284.83" as="sourcePoint" />
            <mxPoint x="809" y="284.83" as="targetPoint" />
          </mxGeometry>
        </mxCell>
        <mxCell id="1zj1acQlD7b9-B1uryEK-46" value="" style="endArrow=none;dashed=1;html=1;dashPattern=1 3;strokeWidth=1;rounded=0;strokeColor=#666666;align=center;verticalAlign=middle;fontFamily=Helvetica;fontSize=11;fontColor=default;labelBackgroundColor=default;fillColor=#f5f5f5;" edge="1" parent="1">
          <mxGeometry width="50" height="50" relative="1" as="geometry">
            <mxPoint x="666" y="235" as="sourcePoint" />
            <mxPoint x="688" y="235" as="targetPoint" />
          </mxGeometry>
        </mxCell>
        <mxCell id="1zj1acQlD7b9-B1uryEK-47" value="" style="endArrow=none;dashed=1;html=1;dashPattern=1 3;strokeWidth=1;rounded=0;strokeColor=#666666;align=center;verticalAlign=middle;fontFamily=Helvetica;fontSize=11;fontColor=default;labelBackgroundColor=default;fillColor=#f5f5f5;" edge="1" parent="1">
          <mxGeometry width="50" height="50" relative="1" as="geometry">
            <mxPoint x="666" y="265" as="sourcePoint" />
            <mxPoint x="688" y="265" as="targetPoint" />
          </mxGeometry>
        </mxCell>
        <mxCell id="1zj1acQlD7b9-B1uryEK-48" value="" style="endArrow=none;dashed=1;html=1;dashPattern=1 3;strokeWidth=1;rounded=0;strokeColor=#666666;align=center;verticalAlign=middle;fontFamily=Helvetica;fontSize=11;fontColor=default;labelBackgroundColor=default;fillColor=#f5f5f5;" edge="1" parent="1">
          <mxGeometry width="50" height="50" relative="1" as="geometry">
            <mxPoint x="666" y="296" as="sourcePoint" />
            <mxPoint x="688" y="296" as="targetPoint" />
          </mxGeometry>
        </mxCell>
        <mxCell id="1zj1acQlD7b9-B1uryEK-57" value="" style="shape=flexArrow;endArrow=classic;html=1;rounded=0;align=center;verticalAlign=middle;fontFamily=Helvetica;fontSize=11;fontColor=default;labelBackgroundColor=default;shadow=0;flowAnimation=0;" edge="1" parent="1">
          <mxGeometry width="50" height="50" relative="1" as="geometry">
            <mxPoint x="610" y="270" as="sourcePoint" />
            <mxPoint x="642" y="270" as="targetPoint" />
          </mxGeometry>
        </mxCell>
      </root>
    </mxGraphModel>
  </diagram>
</mxfile>
